<?xml version="1.0" standalone="no"?>
    <svg 
        xmlns:dc="http://purl.org/dc/elements/1.1/"
        xmlns:cc="http://creativecommons.org/ns#"
        xmlns:rdf="http://www.w3.org/1999/02/22-rdf-syntax-ns#"
        xmlns:svg="http://www.w3.org/2000/svg"
        xmlns="http://www.w3.org/2000/svg"
        version="1.1"
        height="400"
        width="400">

<g stroke="black" stroke-width="1.5" fill="none">
<path d="M 109.99999999999991 355.8845726811989 A 180 180 0 1 1 290.0 355.88457268119896" />
<path d="M 114.99999999999993 347.22431864335454 A 170 170 0 1 1 285.0 347.22431864335454" />
</g>

<g stroke="black" stroke-width="1.0" fill="none">
<path stroke="#000"  d="M369.5 200 l11 0" transform="rotate(  -240.000000 200 200)" />
<path stroke="#000"  d="M369.5 200 l11 0" transform="rotate(  -237.500000 200 200)" />
<path stroke="#000"  d="M369.5 200 l11 0" transform="rotate(  -235.000000 200 200)" />
<path stroke="#000"  d="M369.5 200 l11 0" transform="rotate(  -232.500000 200 200)" />
<path stroke="#000"  d="M369.5 200 l11 0" transform="rotate(  -230.000000 200 200)" />
<path stroke="#000"  d="M369.5 200 l11 0" transform="rotate(  -227.500000 200 200)" />
<path stroke="#000"  d="M369.5 200 l11 0" transform="rotate(  -225.000000 200 200)" />
<path stroke="#000"  d="M369.5 200 l11 0" transform="rotate(  -222.500000 200 200)" />
<path stroke="#000"  d="M369.5 200 l11 0" transform="rotate(  -220.000000 200 200)" />
<path stroke="#000"  d="M369.5 200 l11 0" transform="rotate(  -217.500000 200 200)" />
<path stroke="#000"  d="M369.5 200 l11 0" transform="rotate(  -215.000000 200 200)" />
<path stroke="#000"  d="M369.5 200 l11 0" transform="rotate(  -212.500000 200 200)" />
<path stroke="#000"  d="M369.5 200 l11 0" transform="rotate(  -210.000000 200 200)" />
<path stroke="#000"  d="M369.5 200 l11 0" transform="rotate(  -207.500000 200 200)" />
<path stroke="#000"  d="M369.5 200 l11 0" transform="rotate(  -205.000000 200 200)" />
<path stroke="#000"  d="M369.5 200 l11 0" transform="rotate(  -202.500000 200 200)" />
<path stroke="#000"  d="M369.5 200 l11 0" transform="rotate(  -200.000000 200 200)" />
<path stroke="#000"  d="M369.5 200 l11 0" transform="rotate(  -197.500000 200 200)" />
<path stroke="#000"  d="M369.5 200 l11 0" transform="rotate(  -195.000000 200 200)" />
<path stroke="#000"  d="M369.5 200 l11 0" transform="rotate(  -192.500000 200 200)" />
<path stroke="#000"  d="M369.5 200 l11 0" transform="rotate(  -190.000000 200 200)" />
<path stroke="#000"  d="M369.5 200 l11 0" transform="rotate(  -187.500000 200 200)" />
<path stroke="#000"  d="M369.5 200 l11 0" transform="rotate(  -185.000000 200 200)" />
<path stroke="#000"  d="M369.5 200 l11 0" transform="rotate(  -182.500000 200 200)" />
<path stroke="#000"  d="M369.5 200 l11 0" transform="rotate(  -180.000000 200 200)" />
<path stroke="#000"  d="M369.5 200 l11 0" transform="rotate(  -177.500000 200 200)" />
<path stroke="#000"  d="M369.5 200 l11 0" transform="rotate(  -175.000000 200 200)" />
<path stroke="#000"  d="M369.5 200 l11 0" transform="rotate(  -172.500000 200 200)" />
<path stroke="#000"  d="M369.5 200 l11 0" transform="rotate(  -170.000000 200 200)" />
<path stroke="#000"  d="M369.5 200 l11 0" transform="rotate(  -167.500000 200 200)" />
<path stroke="#000"  d="M369.5 200 l11 0" transform="rotate(  -165.000000 200 200)" />
<path stroke="#000"  d="M369.5 200 l11 0" transform="rotate(  -162.500000 200 200)" />
<path stroke="#000"  d="M369.5 200 l11 0" transform="rotate(  -160.000000 200 200)" />
<path stroke="#000"  d="M369.5 200 l11 0" transform="rotate(  -157.500000 200 200)" />
<path stroke="#000"  d="M369.5 200 l11 0" transform="rotate(  -155.000000 200 200)" />
<path stroke="#000"  d="M369.5 200 l11 0" transform="rotate(  -152.500000 200 200)" />
<path stroke="#000"  d="M369.5 200 l11 0" transform="rotate(  -150.000000 200 200)" />
<path stroke="#000"  d="M369.5 200 l11 0" transform="rotate(  -147.500000 200 200)" />
<path stroke="#000"  d="M369.5 200 l11 0" transform="rotate(  -145.000000 200 200)" />
<path stroke="#000"  d="M369.5 200 l11 0" transform="rotate(  -142.500000 200 200)" />
<path stroke="#000"  d="M369.5 200 l11 0" transform="rotate(  -140.000000 200 200)" />
<path stroke="#000"  d="M369.5 200 l11 0" transform="rotate(  -137.500000 200 200)" />
<path stroke="#000"  d="M369.5 200 l11 0" transform="rotate(  -135.000000 200 200)" />
<path stroke="#000"  d="M369.5 200 l11 0" transform="rotate(  -132.500000 200 200)" />
<path stroke="#000"  d="M369.5 200 l11 0" transform="rotate(  -130.000000 200 200)" />
<path stroke="#000"  d="M369.5 200 l11 0" transform="rotate(  -127.500000 200 200)" />
<path stroke="#000"  d="M369.5 200 l11 0" transform="rotate(  -125.000000 200 200)" />
<path stroke="#000"  d="M369.5 200 l11 0" transform="rotate(  -122.500000 200 200)" />
<path stroke="#000"  d="M369.5 200 l11 0" transform="rotate(  -120.000000 200 200)" />
<path stroke="#000"  d="M369.5 200 l11 0" transform="rotate(  -117.500000 200 200)" />
<path stroke="#000"  d="M369.5 200 l11 0" transform="rotate(  -115.000000 200 200)" />
<path stroke="#000"  d="M369.5 200 l11 0" transform="rotate(  -112.500000 200 200)" />
<path stroke="#000"  d="M369.5 200 l11 0" transform="rotate(  -110.000000 200 200)" />
<path stroke="#000"  d="M369.5 200 l11 0" transform="rotate(  -107.500000 200 200)" />
<path stroke="#000"  d="M369.5 200 l11 0" transform="rotate(  -105.000000 200 200)" />
<path stroke="#000"  d="M369.5 200 l11 0" transform="rotate(  -102.500000 200 200)" />
<path stroke="#000"  d="M369.5 200 l11 0" transform="rotate(  -100.000000 200 200)" />
<path stroke="#000"  d="M369.5 200 l11 0" transform="rotate(  -97.500000 200 200)" />
<path stroke="#000"  d="M369.5 200 l11 0" transform="rotate(  -95.000000 200 200)" />
<path stroke="#000"  d="M369.5 200 l11 0" transform="rotate(  -92.500000 200 200)" />
<path stroke="#000"  d="M369.5 200 l11 0" transform="rotate(  -90.000000 200 200)" />
<path stroke="#000"  d="M369.5 200 l11 0" transform="rotate(  -87.500000 200 200)" />
<path stroke="#000"  d="M369.5 200 l11 0" transform="rotate(  -85.000000 200 200)" />
<path stroke="#000"  d="M369.5 200 l11 0" transform="rotate(  -82.500000 200 200)" />
<path stroke="#000"  d="M369.5 200 l11 0" transform="rotate(  -80.000000 200 200)" />
<path stroke="#000"  d="M369.5 200 l11 0" transform="rotate(  -77.500000 200 200)" />
<path stroke="#000"  d="M369.5 200 l11 0" transform="rotate(  -75.000000 200 200)" />
<path stroke="#000"  d="M369.5 200 l11 0" transform="rotate(  -72.500000 200 200)" />
<path stroke="#000"  d="M369.5 200 l11 0" transform="rotate(  -70.000000 200 200)" />
<path stroke="#000"  d="M369.5 200 l11 0" transform="rotate(  -67.500000 200 200)" />
<path stroke="#000"  d="M369.5 200 l11 0" transform="rotate(  -65.000000 200 200)" />
<path stroke="#000"  d="M369.5 200 l11 0" transform="rotate(  -62.500000 200 200)" />
<path stroke="#000"  d="M369.5 200 l11 0" transform="rotate(  -60.000000 200 200)" />
<path stroke="#000"  d="M369.5 200 l11 0" transform="rotate(  -57.500000 200 200)" />
<path stroke="#000"  d="M369.5 200 l11 0" transform="rotate(  -55.000000 200 200)" />
<path stroke="#000"  d="M369.5 200 l11 0" transform="rotate(  -52.500000 200 200)" />
<path stroke="#000"  d="M369.5 200 l11 0" transform="rotate(  -50.000000 200 200)" />
<path stroke="#000"  d="M369.5 200 l11 0" transform="rotate(  -47.500000 200 200)" />
<path stroke="#000"  d="M369.5 200 l11 0" transform="rotate(  -45.000000 200 200)" />
<path stroke="#000"  d="M369.5 200 l11 0" transform="rotate(  -42.500000 200 200)" />
<path stroke="#000"  d="M369.5 200 l11 0" transform="rotate(  -40.000000 200 200)" />
<path stroke="#000"  d="M369.5 200 l11 0" transform="rotate(  -37.500000 200 200)" />
<path stroke="#000"  d="M369.5 200 l11 0" transform="rotate(  -35.000000 200 200)" />
<path stroke="#000"  d="M369.5 200 l11 0" transform="rotate(  -32.500000 200 200)" />
<path stroke="#000"  d="M369.5 200 l11 0" transform="rotate(  -30.000000 200 200)" />
<path stroke="#000"  d="M369.5 200 l11 0" transform="rotate(  -27.500000 200 200)" />
<path stroke="#000"  d="M369.5 200 l11 0" transform="rotate(  -25.000000 200 200)" />
<path stroke="#000"  d="M369.5 200 l11 0" transform="rotate(  -22.500000 200 200)" />
<path stroke="#000"  d="M369.5 200 l11 0" transform="rotate(  -20.000000 200 200)" />
<path stroke="#000"  d="M369.5 200 l11 0" transform="rotate(  -17.500000 200 200)" />
<path stroke="#000"  d="M369.5 200 l11 0" transform="rotate(  -15.000000 200 200)" />
<path stroke="#000"  d="M369.5 200 l11 0" transform="rotate(  -12.500000 200 200)" />
<path stroke="#000"  d="M369.5 200 l11 0" transform="rotate(  -10.000000 200 200)" />
<path stroke="#000"  d="M369.5 200 l11 0" transform="rotate(  -7.500000 200 200)" />
<path stroke="#000"  d="M369.5 200 l11 0" transform="rotate(  -5.000000 200 200)" />
<path stroke="#000"  d="M369.5 200 l11 0" transform="rotate(  -2.500000 200 200)" />
<path stroke="#000"  d="M369.5 200 l11 0" transform="rotate(  -0.000000 200 200)" />
<path stroke="#000"  d="M369.5 200 l11 0" transform="rotate(  2.500000 200 200)" />
<path stroke="#000"  d="M369.5 200 l11 0" transform="rotate(  5.000000 200 200)" />
<path stroke="#000"  d="M369.5 200 l11 0" transform="rotate(  7.500000 200 200)" />
<path stroke="#000"  d="M369.5 200 l11 0" transform="rotate(  10.000000 200 200)" />
<path stroke="#000"  d="M369.5 200 l11 0" transform="rotate(  12.500000 200 200)" />
<path stroke="#000"  d="M369.5 200 l11 0" transform="rotate(  15.000000 200 200)" />
<path stroke="#000"  d="M369.5 200 l11 0" transform="rotate(  17.500000 200 200)" />
<path stroke="#000"  d="M369.5 200 l11 0" transform="rotate(  20.000000 200 200)" />
<path stroke="#000"  d="M369.5 200 l11 0" transform="rotate(  22.500000 200 200)" />
<path stroke="#000"  d="M369.5 200 l11 0" transform="rotate(  25.000000 200 200)" />
<path stroke="#000"  d="M369.5 200 l11 0" transform="rotate(  27.500000 200 200)" />
<path stroke="#000"  d="M369.5 200 l11 0" transform="rotate(  30.000000 200 200)" />
<path stroke="#000"  d="M369.5 200 l11 0" transform="rotate(  32.500000 200 200)" />
<path stroke="#000"  d="M369.5 200 l11 0" transform="rotate(  35.000000 200 200)" />
<path stroke="#000"  d="M369.5 200 l11 0" transform="rotate(  37.500000 200 200)" />
<path stroke="#000"  d="M369.5 200 l11 0" transform="rotate(  40.000000 200 200)" />
<path stroke="#000"  d="M369.5 200 l11 0" transform="rotate(  42.500000 200 200)" />
<path stroke="#000"  d="M369.5 200 l11 0" transform="rotate(  45.000000 200 200)" />
<path stroke="#000"  d="M369.5 200 l11 0" transform="rotate(  47.500000 200 200)" />
<path stroke="#000"  d="M369.5 200 l11 0" transform="rotate(  50.000000 200 200)" />
<path stroke="#000"  d="M369.5 200 l11 0" transform="rotate(  52.500000 200 200)" />
<path stroke="#000"  d="M369.5 200 l11 0" transform="rotate(  55.000000 200 200)" />
<path stroke="#000"  d="M369.5 200 l11 0" transform="rotate(  57.500000 200 200)" />
<path stroke="#000"  d="M369.5 200 l11 0" transform="rotate(  60.000000 200 200)" />
</g>

<g stroke="black" stroke-width="1.0" fill="none">
<path stroke="#000"  d="M369.5 200 l22 0" transform="rotate(  -227.500000 200 200)" />
<path stroke="#000"  d="M369.5 200 l22 0" transform="rotate(  -202.500000 200 200)" />
<path stroke="#000"  d="M369.5 200 l22 0" transform="rotate(  -177.500000 200 200)" />
<path stroke="#000"  d="M369.5 200 l22 0" transform="rotate(  -152.500000 200 200)" />
<path stroke="#000"  d="M369.5 200 l22 0" transform="rotate(  -127.500000 200 200)" />
<path stroke="#000"  d="M369.5 200 l22 0" transform="rotate(  -102.500000 200 200)" />
<path stroke="#000"  d="M369.5 200 l22 0" transform="rotate(  -77.500000 200 200)" />
<path stroke="#000"  d="M369.5 200 l22 0" transform="rotate(  -52.500000 200 200)" />
<path stroke="#000"  d="M369.5 200 l22 0" transform="rotate(  -27.500000 200 200)" />
<path stroke="#000"  d="M369.5 200 l22 0" transform="rotate(  -2.500000 200 200)" />
<path stroke="#000"  d="M369.5 200 l22 0" transform="rotate(  22.500000 200 200)" />
<path stroke="#000"  d="M369.5 200 l22 0" transform="rotate(  47.500000 200 200)" />
</g>

<g stroke="black" stroke-width="2.5" fill="none">
<path stroke="#000"  d="M369.5 200 l11 0" transform="rotate(  -240.000000 200 200)" />
<path stroke="#000"  d="M369.5 200 l11 0" transform="rotate(  -215.000000 200 200)" />
<path stroke="#000"  d="M369.5 200 l11 0" transform="rotate(  -190.000000 200 200)" />
<path stroke="#000"  d="M369.5 200 l11 0" transform="rotate(  -165.000000 200 200)" />
<path stroke="#000"  d="M369.5 200 l11 0" transform="rotate(  -140.000000 200 200)" />
<path stroke="#000"  d="M369.5 200 l11 0" transform="rotate(  -115.000000 200 200)" />
<path stroke="#000"  d="M369.5 200 l11 0" transform="rotate(  -90.000000 200 200)" />
<path stroke="#000"  d="M369.5 200 l11 0" transform="rotate(  -65.000000 200 200)" />
<path stroke="#000"  d="M369.5 200 l11 0" transform="rotate(  -40.000000 200 200)" />
<path stroke="#000"  d="M369.5 200 l11 0" transform="rotate(  -15.000000 200 200)" />
<path stroke="#000"  d="M369.5 200 l11 0" transform="rotate(  10.000000 200 200)" />
<path stroke="#000"  d="M369.5 200 l11 0" transform="rotate(  35.000000 200 200)" />
<path stroke="#000"  d="M369.5 200 l11 0" transform="rotate(  60.000000 200 200)" />
</g>

<text id="TextElement" x="200" y="380" style="font-family:Anaktoria; text-anchor:middle; font-weight:bold" font-size="18">kPa</text>

<text id="TextElement" x="200" y="15" style="font-family:Anaktoria; text-anchor:middle; font-weight:normal" font-size="14" transform="rotate( -125.000000 200 200)">96</text>
<text id="TextElement" x="200" y="15" style="font-family:Anaktoria; text-anchor:middle; font-weight:normal" font-size="14" transform="rotate( -100.000000 200 200)">97</text>
<text id="TextElement" x="200" y="15" style="font-family:Anaktoria; text-anchor:middle; font-weight:normal" font-size="14" transform="rotate( -75.000000 200 200)">98</text>
<text id="TextElement" x="200" y="15" style="font-family:Anaktoria; text-anchor:middle; font-weight:normal" font-size="14" transform="rotate( -50.000000 200 200)">99</text>
<text id="TextElement" x="200" y="15" style="font-family:Anaktoria; text-anchor:middle; font-weight:normal" font-size="14" transform="rotate( -25.000000 200 200)">100</text>
<text id="TextElement" x="200" y="15" style="font-family:Anaktoria; text-anchor:middle; font-weight:normal" font-size="14" transform="rotate( 0.000000 200 200)">101</text>
<text id="TextElement" x="200" y="15" style="font-family:Anaktoria; text-anchor:middle; font-weight:normal" font-size="14" transform="rotate( 25.000000 200 200)">102</text>
<text id="TextElement" x="200" y="15" style="font-family:Anaktoria; text-anchor:middle; font-weight:normal" font-size="14" transform="rotate( 50.000000 200 200)">103</text>
<text id="TextElement" x="200" y="15" style="font-family:Anaktoria; text-anchor:middle; font-weight:normal" font-size="14" transform="rotate( 75.000000 200 200)">104</text>
<text id="TextElement" x="200" y="15" style="font-family:Anaktoria; text-anchor:middle; font-weight:normal" font-size="14" transform="rotate( 100.000000 200 200)">105</text>
<text id="TextElement" x="200" y="15" style="font-family:Anaktoria; text-anchor:middle; font-weight:normal" font-size="14" transform="rotate( 125.000000 200 200)">106</text>

<circle cx="200" cy="200" r="5" stroke="black" stroke-width="1" fill="black" />

</svg>
